<svg width="205" height="40" viewBox="0 0 205 40" fill="none" xmlns="http://www.w3.org/2000/svg">
<path fill-rule="evenodd" clip-rule="evenodd" d="M83.1483 28.1466C81.2621 28.1466 79.859 27.6323 79.1452 26.2571C78.3724 24.7705 78.3446 22.5954 78.3446 20.1935C78.3446 17.7916 78.4009 15.6437 79.1452 14.1577C79.8901 12.7269 81.2621 12.2397 83.1483 12.2397C85.0663 12.2397 86.4693 12.7269 87.1825 14.1577C87.9559 15.6437 87.9838 17.7916 87.9838 20.1935C87.9838 22.5954 87.9559 24.7427 87.1825 26.2571C86.4972 27.6323 85.0663 28.1466 83.1483 28.1466ZM83.1483 30.2634C85.8112 30.2634 87.7849 29.435 89.0137 27.6038C90.1868 25.8568 90.3293 23.225 90.3293 20.1935C90.3293 17.1614 90.1868 14.5302 89.0137 12.7826C87.7849 10.952 85.8112 10.1235 83.1483 10.1235C80.5171 10.1235 78.5745 10.9242 77.3147 12.7826C76.1416 14.4991 75.9984 17.1614 75.9984 20.1935C75.9984 23.225 76.1416 25.8846 77.3147 27.6038C78.5745 29.4628 80.5171 30.2634 83.1483 30.2634ZM58.9523 27.5728C60.3832 29.7207 62.5557 30.2635 64.4452 30.2635C67.9645 30.2635 69.6214 28.8333 70.251 28.1467C70.481 27.8895 70.6242 27.6596 70.6242 27.4024C70.6242 26.9153 69.9939 26.285 69.4511 26.285C69.1933 26.285 69.0223 26.4308 68.793 26.6575C67.3621 27.8895 65.8172 28.1467 64.532 28.1467C63.0422 28.1467 61.612 27.8306 60.7835 26.2572C60.0386 24.8574 59.9829 22.769 59.9829 20.1936C59.9829 17.6459 60.0664 15.5291 60.7835 14.1578C61.6398 12.497 63.1854 12.2398 64.5877 12.2398C66.189 12.2398 67.0492 12.497 68.3369 13.4407C68.5352 13.5832 68.793 13.7575 69.0223 13.7575C69.5379 13.7575 70.1085 13.1272 70.1085 12.6401C70.1085 12.2467 69.7488 11.9371 69.3564 11.5994L69.3358 11.5817C68.0791 10.5233 66.4468 10.1236 64.4452 10.1236C62.4715 10.1236 60.3242 10.7221 58.9523 12.7826C57.9224 14.3282 57.6367 16.7022 57.6367 20.1936C57.6367 23.7121 57.9224 26.0583 58.9523 27.5728ZM97.3025 11.1257C97.3025 10.3219 97.9017 10.1237 98.4445 10.1237C99.0184 10.1237 99.5898 10.3219 99.5898 11.1257V29.2615C99.5898 30.0615 99.0184 30.2636 98.4445 30.2636C97.9017 30.2636 97.3025 30.0615 97.3025 29.2615V11.1257ZM119.215 25.4009C119.069 25.4009 118.985 25.2577 118.957 25.1988L110.83 11.4107C110.172 10.294 109.688 10.1237 108.971 10.1237C108.083 10.1237 107.599 10.7811 107.599 11.8674V29.2609C107.599 30.0615 108.199 30.2636 108.741 30.2636C109.315 30.2636 109.887 30.0615 109.887 29.2609V15.2992C109.887 15.1878 109.887 14.9857 110.029 14.9857C110.172 14.9857 110.258 15.1288 110.287 15.1878L118.411 28.9758C119.069 30.0926 119.556 30.2636 120.273 30.2636C121.157 30.2636 121.645 29.6055 121.645 28.5192V11.1257C121.645 10.3219 121.045 10.1237 120.499 10.1237C119.929 10.1237 119.357 10.3219 119.357 11.1257V25.0842C119.357 25.1988 119.357 25.4009 119.215 25.4009ZM141.806 11.4391L145.81 26.1425C145.836 26.2207 145.857 26.3203 145.878 26.4209C145.927 26.6512 145.976 26.8874 146.095 26.8874C146.2 26.8874 146.244 26.6649 146.292 26.4222C146.31 26.3281 146.329 26.2308 146.353 26.1425L150.387 10.8367C150.53 10.2939 150.874 10.1235 151.247 10.1235C151.876 10.1235 152.59 10.437 152.59 11.0945C152.59 11.1807 152.563 11.2943 152.535 11.4087V11.4113L147.755 28.9479C147.47 30.0341 146.753 30.2634 146.126 30.2634C145.496 30.2634 144.811 30.0341 144.494 28.9479L140.403 13.8999C140.394 13.8646 140.385 13.8276 140.376 13.7906C140.334 13.6158 140.292 13.4407 140.174 13.4407C140.06 13.4407 140.019 13.6058 139.977 13.7754C139.966 13.8174 139.956 13.8598 139.944 13.8999L135.854 28.9479C135.541 30.0341 134.855 30.2634 134.225 30.2634C133.596 30.2634 132.878 30.0341 132.593 28.9479L127.817 11.4113C127.786 11.296 127.758 11.1813 127.758 11.0945C127.758 10.437 128.474 10.1235 129.105 10.1235C129.474 10.1235 129.818 10.2939 129.961 10.8367L133.995 26.1425C134.021 26.2343 134.041 26.3356 134.061 26.4331C134.108 26.6714 134.152 26.8874 134.253 26.8874C134.372 26.8874 134.422 26.6512 134.47 26.4209C134.491 26.3203 134.512 26.2207 134.539 26.1425L138.545 11.4391C138.831 10.3528 139.544 10.1235 140.174 10.1235C140.804 10.1235 141.518 10.3528 141.806 11.4391ZM161.251 28.0318C161.053 28.0318 160.994 27.9735 160.994 27.7747V21.1365C160.994 20.9383 161.053 20.8793 161.251 20.8793H168.861C169.549 20.8793 169.807 20.3644 169.807 19.8209C169.807 19.3059 169.549 18.7625 168.861 18.7625H161.251C161.053 18.7625 160.994 18.7042 160.994 18.5053V12.6121C160.994 12.4106 161.053 12.3543 161.251 12.3543H170.064C170.751 12.3543 171.008 11.8393 171.008 11.2965C171.008 10.7815 170.751 10.2381 170.064 10.2381H159.765C159.222 10.2381 158.707 10.468 158.707 11.1533V29.2327C158.707 29.9194 159.222 30.1487 159.765 30.1487H170.35C171.036 30.1487 171.294 29.6337 171.294 29.0902C171.294 28.5474 171.036 28.0318 170.35 28.0318H161.251ZM180.7 21.1956C180.501 21.1956 180.442 21.2513 180.442 21.4534V27.7748C180.442 27.973 180.501 28.0319 180.7 28.0319H186.68C188.597 28.0319 190.14 26.8589 190.14 24.6002C190.14 22.3376 188.74 21.1956 186.621 21.1956H180.7ZM186.22 19.0761C188.225 19.0761 189.624 17.903 189.624 15.7033C189.624 13.4996 188.082 12.3544 186.22 12.3544H180.7C180.501 12.3544 180.442 12.4101 180.442 12.6122V18.819C180.442 19.0204 180.501 19.0761 180.7 19.0761H186.22ZM190.025 19.9357C190.025 20.0225 190.056 20.106 190.171 20.1935C191.57 21.1366 192.486 22.5397 192.486 24.6002C192.486 28.2897 189.74 30.1488 186.68 30.1488H179.213C178.67 30.1488 178.155 29.9188 178.155 29.2329V11.1535C178.155 10.4675 178.67 10.2382 179.213 10.2382H186.22C189.255 10.2382 191.971 11.9819 191.971 15.7033C191.971 17.6763 191.198 18.819 190.171 19.7064C190.084 19.7925 190.025 19.8767 190.025 19.9357ZM201.377 10.9118C201.277 10.7064 201.193 10.5361 201.125 10.4027C201.091 10.3683 201.032 10.3346 200.949 10.2971C200.862 10.2595 200.75 10.2381 200.61 10.2381C200.502 10.2381 200.402 10.2718 200.312 10.3346C200.225 10.3994 200.173 10.4985 200.16 10.6384C200.129 11.2376 200.098 11.8361 200.067 12.4321C200.035 12.9893 200.006 13.5459 199.978 14.1083L199.971 14.2354H200.713C200.741 13.7761 200.762 13.2949 200.784 12.7857C200.788 12.7073 200.792 12.6298 200.795 12.553C200.815 12.1317 200.834 11.7349 200.859 11.3646C200.914 11.4843 200.982 11.6238 201.059 11.7812L201.085 11.8361C201.175 12.0162 201.265 12.2053 201.352 12.3977C201.402 12.5072 201.452 12.6147 201.502 12.7214C201.541 12.8053 201.58 12.8887 201.619 12.9723C201.708 13.1582 201.789 13.3292 201.857 13.4808H202.488C202.5 13.4555 202.514 13.4268 202.529 13.3945C202.569 13.3119 202.621 13.206 202.683 13.0746C202.734 12.9645 202.789 12.8485 202.847 12.7267C202.883 12.6494 202.921 12.5697 202.959 12.4878C203 12.403 203.04 12.3188 203.079 12.2352C203.137 12.1136 203.194 11.9931 203.251 11.8737C203.303 11.7637 203.35 11.6634 203.393 11.5731C203.428 11.5002 203.459 11.4339 203.487 11.3743C203.489 11.3961 203.491 11.4173 203.493 11.4376C203.497 11.4828 203.5 11.524 203.502 11.5602C203.503 11.5774 203.504 11.5977 203.506 11.621C203.509 11.6688 203.514 11.7293 203.518 11.8024C203.53 12.0071 203.543 12.2177 203.555 12.4385L203.561 12.5379C203.571 12.7216 203.582 12.9048 203.589 13.0837C203.597 13.2594 203.605 13.4308 203.612 13.596L203.617 13.7042C203.62 13.7631 203.622 13.8195 203.625 13.8738C203.63 14.0059 203.635 14.1252 203.642 14.2354H204.375L204.167 10.3625C204.126 10.3372 204.067 10.3126 203.99 10.2815C203.909 10.2537 203.815 10.2381 203.707 10.2381C203.465 10.2381 203.291 10.3528 203.183 10.5827C203.166 10.6178 203.147 10.6554 203.127 10.6957C203.082 10.7872 203.03 10.8922 202.975 11.0109C202.891 11.1845 202.804 11.3613 202.711 11.5505C202.664 11.6437 202.619 11.7377 202.573 11.8316C202.527 11.9255 202.481 12.0194 202.434 12.1127C202.375 12.234 202.319 12.3462 202.267 12.4512C202.238 12.51 202.21 12.5666 202.183 12.6212C202.156 12.5629 202.124 12.4925 202.087 12.4106C202.053 12.3361 202.016 12.2519 201.973 12.1587C201.883 11.967 201.786 11.7616 201.681 11.5446C201.604 11.3886 201.53 11.2342 201.458 11.0819C201.431 11.0249 201.404 10.9682 201.377 10.9118ZM199.552 10.5827C199.552 10.3651 199.434 10.2595 199.198 10.2595H195.89C195.871 10.2906 195.849 10.3372 195.828 10.4027C195.807 10.4648 195.794 10.5328 195.794 10.6015C195.794 10.8185 195.912 10.9273 196.147 10.9273H197.271V14.2535H198.025V10.9273H199.465C199.47 10.9137 199.476 10.8982 199.482 10.8806C199.492 10.8536 199.504 10.8218 199.518 10.7842C199.54 10.7188 199.552 10.654 199.552 10.5827Z" fill="white"/>
<path fill-rule="evenodd" clip-rule="evenodd" d="M20.8 0C20.138 0 19.601 0.536987 19.601 1.19964C19.601 1.5844 19.7849 1.92253 20.0667 2.14147L16.357 10.4696C16.2929 10.6141 16.3577 10.7831 16.5021 10.8479C16.541 10.8641 16.5805 10.8719 16.6187 10.8719C16.7289 10.8719 16.8331 10.809 16.8804 10.7022L20.5888 2.3779C20.6575 2.38891 20.7274 2.39863 20.8 2.39863C21.1951 2.39863 21.5429 2.20495 21.7606 1.91022L31.9614 6.16401C31.9173 6.33113 31.8869 6.50408 31.8869 6.68545C31.8869 7.3047 32.1667 7.85464 32.6001 8.23228L28.4337 14.658C28.3469 14.7901 28.3852 14.9683 28.5179 15.0538C28.5665 15.0855 28.6203 15.0998 28.6734 15.0998C28.7667 15.0998 28.8593 15.0538 28.9137 14.9696L33.0781 8.54774C33.3437 8.67276 33.6365 8.74725 33.9493 8.74725C35.0868 8.74725 36.0118 7.8229 36.0118 6.68545C36.0118 5.53958 35.0868 4.62301 33.9493 4.62301C33.1947 4.62301 32.5411 5.03044 32.1816 5.63609L21.9808 1.38166C21.9899 1.32206 21.999 1.26182 21.999 1.19964C21.999 0.536987 21.462 0 20.8 0ZM33.0937 6.68545C33.0937 6.21194 33.4758 5.82977 33.9493 5.82977C34.4157 5.82977 34.7966 6.21194 34.7966 6.68545C34.7966 7.15119 34.4157 7.53271 33.9493 7.53271C33.4758 7.53271 33.0937 7.15119 33.0937 6.68545ZM18.5808 1.83508L8.6883 5.94637C8.46936 5.65099 8.12152 5.45731 7.72574 5.45731C7.06374 5.45731 6.52675 5.9943 6.52675 6.65695C6.52675 7.05143 6.71978 7.39863 7.01451 7.61757L2.84169 17.6046C2.6506 17.5528 2.45304 17.5152 2.24576 17.5152C1.0079 17.5152 0 18.5238 0 19.7681C0 21.0137 1.0079 22.0216 2.24576 22.0216C2.45498 22.0216 2.65384 21.9834 2.84622 21.9303L7.09807 32.0696C6.8584 32.262 6.70165 32.5541 6.70165 32.8857C6.70165 33.4655 7.17062 33.9351 7.75036 33.9351C8.33009 33.9351 8.79972 33.4655 8.79972 32.8857C8.79972 32.4174 8.49074 32.0249 8.06646 31.8895L8.2284 26.3804C8.23293 26.2223 8.10792 26.0902 7.94922 26.0856C7.80865 26.0941 7.65967 26.2061 7.65514 26.3642L7.50291 31.5546L3.37414 21.7088C3.57494 21.5909 3.75502 21.4464 3.91048 21.2748L5.85244 22.6305C5.90297 22.6661 5.95997 22.683 6.01697 22.683C6.10701 22.683 6.1951 22.6396 6.25146 22.5599C6.34149 22.4304 6.3104 22.2516 6.18085 22.1609L4.23565 20.8039C4.39824 20.4923 4.49799 20.1438 4.49799 19.7681C4.49799 18.9351 4.04197 18.2167 3.36961 17.8261L7.54308 7.83715L7.55406 7.83881C7.61065 7.84737 7.66734 7.85594 7.72574 7.85594C8.38839 7.85594 8.92538 7.31895 8.92538 6.65695C8.92538 6.59477 8.91631 6.53517 8.90724 6.47623L18.7997 2.3643C18.9461 2.30341 19.0154 2.13564 18.9552 1.9899C18.9085 1.87913 18.8017 1.81241 18.6902 1.81241C18.6533 1.81241 18.6164 1.81954 18.5808 1.83508ZM1.32141 19.7681C1.32141 19.2493 1.73403 18.8366 2.24576 18.8366C2.76525 18.8366 3.17723 19.2493 3.17723 19.7681C3.17723 20.2805 2.76525 20.7009 2.24576 20.7009C1.73403 20.7009 1.32141 20.2805 1.32141 19.7681ZM21.5041 3.51535C21.4425 3.36961 21.5093 3.20119 21.655 3.13966C21.6926 3.12411 21.7308 3.11634 21.769 3.11634C21.8804 3.11634 21.9847 3.18111 22.0307 3.28993L27.282 15.6063C27.3449 15.5959 27.409 15.5875 27.4744 15.5875C28.1209 15.5875 28.6443 16.0992 28.6689 16.7399L37.2892 18.9383C37.4777 18.4622 37.8255 18.0729 38.2647 17.821L34.9482 9.77329C34.8886 9.62689 34.9585 9.46042 35.1043 9.39953C35.25 9.33864 35.4178 9.40795 35.478 9.55499L38.7939 17.602C38.9811 17.5515 39.1754 17.5152 39.3795 17.5152C40.6173 17.5152 41.6252 18.5238 41.6252 19.7681C41.6252 21.0137 40.6173 22.0216 39.3795 22.0216C38.5141 22.0216 37.773 21.5293 37.3947 20.8149L33.4707 22.2866C33.437 22.2982 33.4026 22.3041 33.3696 22.3041C33.2537 22.3041 33.1448 22.2334 33.1008 22.1182C33.0457 21.9705 33.1215 21.8053 33.2686 21.7496L37.1901 20.2792C37.1512 20.1147 37.1266 19.9449 37.1266 19.7681C37.1266 19.6979 37.1357 19.6303 37.145 19.5622C37.148 19.5398 37.1511 19.5174 37.1538 19.4948L28.5529 17.3015C28.3599 17.7044 27.9512 17.9855 27.4744 17.9855C27.2626 17.9855 27.065 17.9252 26.8921 17.8281L17.876 27.4744C18.198 27.8644 18.3994 28.3573 18.3994 28.9027C18.3994 30.1483 17.3909 31.1562 16.1536 31.1562C15.3504 31.1562 14.6509 30.7339 14.2512 30.1023L9.71369 32.2147C9.67483 32.2335 9.63337 32.2412 9.59256 32.2412C9.48504 32.2412 9.38204 32.1803 9.33346 32.0754C9.2661 31.9329 9.32893 31.7619 9.47208 31.6958L14.0154 29.5803C13.948 29.3652 13.9008 29.1411 13.9008 28.9027C13.9008 28.5633 13.9817 28.2446 14.1165 27.955L9.18901 24.84C8.92603 25.1147 8.55746 25.2882 8.14678 25.2882C7.3481 25.2882 6.70164 24.6411 6.70164 23.8425C6.70164 23.0438 7.3481 22.3967 8.14678 22.3967C8.35082 22.3967 8.54385 22.4394 8.72004 22.5152L13.1371 16.1536C13.2265 16.0234 13.4052 15.9911 13.5354 16.0824C13.6656 16.1724 13.6974 16.3512 13.6073 16.4801L9.18901 22.843C9.43775 23.1027 9.59256 23.4532 9.59256 23.8425C9.59256 24.0232 9.55564 24.1955 9.49411 24.3555L14.4261 27.4725C14.8387 26.9737 15.4554 26.6498 16.1536 26.6498C16.6421 26.6498 17.0916 26.8118 17.4615 27.0786L26.471 17.4401C26.348 17.2516 26.2754 17.0275 26.2754 16.7859C26.2754 16.7737 26.2771 16.7617 26.2788 16.7497C26.2801 16.7407 26.2813 16.7315 26.2819 16.7224L17.3125 14.4345C17.032 15.1425 16.405 15.673 15.638 15.8162L16.2178 25.535C16.2268 25.6937 16.1077 25.8291 15.949 25.8382C15.9431 25.8388 15.9373 25.8388 15.9315 25.8388C15.7812 25.8388 15.6555 25.7216 15.6465 25.5694L15.0667 15.8421C14.3373 15.7922 13.7038 15.4023 13.3301 14.8225L5.45861 18.5691C5.4191 18.5879 5.37764 18.5963 5.33554 18.5963C5.22866 18.5963 5.12631 18.5367 5.07643 18.4331C5.00907 18.2912 5.06931 18.1189 5.21246 18.0516L13.0898 14.3017C13.0179 14.0815 12.9686 13.8502 12.9686 13.6047C12.9686 13.1189 13.1261 12.6713 13.3877 12.3034L9.20845 8.44475C9.09315 8.33722 9.08602 8.15585 9.1929 8.0399C9.30107 7.9259 9.48245 7.91748 9.59839 8.02371L13.7803 11.8863C14.1715 11.5578 14.6703 11.3519 15.2215 11.3519C16.4665 11.3519 17.4744 12.3598 17.4744 13.6047C17.4744 13.6753 17.4653 13.7426 17.4561 13.8104C17.453 13.8329 17.4499 13.8554 17.4472 13.8781L26.4484 16.1731C26.528 16.0403 26.6323 15.9243 26.7554 15.8317L21.5041 3.51535ZM15.2215 12.6726C14.7027 12.6726 14.2901 13.093 14.2901 13.6047C14.2901 14.1165 14.7027 14.5369 15.2215 14.5369C15.7333 14.5369 16.1536 14.1165 16.1536 13.6047C16.1536 13.093 15.7333 12.6726 15.2215 12.6726ZM39.3795 18.8366C38.86 18.8366 38.448 19.2493 38.448 19.7681C38.448 20.2805 38.86 20.7009 39.3795 20.7009C39.8912 20.7009 40.3038 20.2805 40.3038 19.7681C40.3038 19.2493 39.8912 18.8366 39.3795 18.8366ZM16.1536 27.9712C15.6341 27.9712 15.2215 28.391 15.2215 28.9027C15.2215 29.4151 15.6341 29.8355 16.1536 29.8355C16.6654 29.8355 17.078 29.4151 17.078 28.9027C17.078 28.391 16.6654 27.9712 16.1536 27.9712ZM28.5348 18.5847C28.3962 18.6611 28.3463 18.836 28.4234 18.9746L30.0615 21.9238C29.7519 22.1881 29.5511 22.5781 29.5511 23.0172C29.5511 23.1001 29.5621 23.1805 29.5757 23.2595L19.0485 27.3235C18.9008 27.3811 18.8269 27.5463 18.8839 27.694C18.928 27.808 19.0361 27.8773 19.1508 27.8773C19.1851 27.8773 19.2208 27.8715 19.2538 27.8579L29.7804 23.7939C30.0376 24.1955 30.4852 24.463 30.9969 24.463C31.0269 24.463 31.056 24.4591 31.0853 24.4552C31.0989 24.4533 31.1126 24.4515 31.1264 24.4501L33.0354 30.833C32.2477 31.1834 31.6958 31.9692 31.6958 32.8825C31.6958 33.0865 31.7321 33.2802 31.7826 33.4681L23.4169 36.9154C23.2705 36.9763 23.1999 37.1434 23.2608 37.2898C23.3061 37.4006 23.413 37.4666 23.5257 37.4666C23.562 37.4666 23.5983 37.4608 23.6345 37.4453L32.0028 33.9973C32.3909 34.6748 33.1118 35.1354 33.9493 35.1354C35.1943 35.1354 36.2022 34.1268 36.2022 32.8825C36.2022 32.0553 35.7469 31.3389 35.0758 30.949L38.446 22.9557C38.5069 22.8099 38.4389 22.6415 38.2932 22.58C38.1474 22.5198 37.9797 22.5871 37.9181 22.7335L34.5479 30.7274C34.3561 30.6743 34.1586 30.6367 33.9493 30.6367C33.825 30.6367 33.7051 30.6542 33.586 30.6737L31.6757 24.2862C32.1305 24.0433 32.4427 23.5691 32.4427 23.0172C32.4427 22.2186 31.7956 21.5714 30.9969 21.5714C30.844 21.5714 30.7009 21.6019 30.5622 21.6453L28.9247 18.6967C28.871 18.6021 28.7732 18.5497 28.6728 18.5497C28.6261 18.5497 28.5788 18.5607 28.5348 18.5847ZM33.0172 32.8825C33.0172 32.3708 33.4376 31.9582 33.9493 31.9582C34.4611 31.9582 34.8815 32.3708 34.8815 32.8825C34.8815 33.402 34.4611 33.814 33.9493 33.814C33.4376 33.814 33.0172 33.402 33.0172 32.8825ZM21.5442 36.7489L29.3127 25.1289C29.3684 25.046 29.4591 25.0019 29.5511 25.0019C29.6055 25.0019 29.6612 25.0175 29.7098 25.0499C29.8413 25.1373 29.8763 25.3155 29.7882 25.4463L22.019 37.0676C22.3462 37.3779 22.5521 37.8132 22.5521 38.2997C22.5521 39.2389 21.791 40 20.8518 40C19.9126 40 19.1514 39.2389 19.1514 38.2997C19.1514 38.1695 19.1689 38.0444 19.1955 37.9233L9.48309 33.8995C9.3367 33.8392 9.26739 33.6715 9.32828 33.5251C9.38917 33.3793 9.55758 33.3107 9.70268 33.3696L19.4164 37.3947C19.5297 37.2153 19.6839 37.0683 19.8536 36.942L17.2147 31.6608C17.1447 31.5196 17.2017 31.3467 17.3429 31.2761C17.4841 31.2074 17.6564 31.2638 17.7277 31.4043L20.3621 36.6777C20.5182 36.6297 20.6801 36.5987 20.8518 36.5987C21.0992 36.5987 21.3324 36.6544 21.5442 36.7489Z" fill="white"/>
</svg>
